<?xml version="1.0" ?><svg viewBox="0 0 32 32" xmlns="http://www.w3.org/2000/svg"><title/><g data-name="filled line" id="filled_line"><path d="M29.5938,13.0283a1.0067,1.0067,0,0,0-.8877-.1513,42.4381,42.4381,0,0,1-25.4122,0A1,1,0,0,0,2,13.833v13a1,1,0,0,0,.6621.9414C5.2173,28.6914,10.6089,29.15,16,29.15s10.7822-.459,13.3379-1.376A1,1,0,0,0,30,26.833v-13A.9993.9993,0,0,0,29.5938,13.0283Z" style="fill:#d32344"/><ellipse cx="16" cy="13.833" rx="14" ry="3" style="fill:#ffc914"/><path d="M10.2749,4.8711l-7-2a1,1,0,0,0-.55,1.9238l7,2a1.0342,1.0342,0,0,0,.2754.0381,1,1,0,0,0,.2744-1.9619Z" style="fill:#d32344"/><path d="M29.9619,3.5586a1.0064,1.0064,0,0,0-1.2363-.6875l-7,2A1,1,0,0,0,21.999,6.833a1.0287,1.0287,0,0,0,.2754-.0381l7-2A1.0011,1.0011,0,0,0,29.9619,3.5586Z" style="fill:#d32344"/><path d="M12,3.833a3,3,0,1,0,3,3A3.0045,3.0045,0,0,0,12,3.833Z" style="fill:#f6ae2d"/><path d="M22.7441,5.6182A3.002,3.002,0,1,0,23,6.833,3.0023,3.0023,0,0,0,22.7441,5.6182Z" style="fill:#f6ae2d"/><path d="M16,10.833c-5.2285,0-14,.39-14,3v13a1,1,0,0,0,.6621.9414C5.2173,28.6914,10.6089,29.15,16,29.15s10.7822-.459,13.3379-1.376A1,1,0,0,0,30,26.833v-13C30,11.2227,21.2285,10.833,16,10.833ZM28,20.9814l-1.3021-1.6276c.4344-.0867.8682-.1845,1.3021-.2818ZM4,19.072c.48.1077.96.2172,1.4412.3119L4,21.0943Zm3.4531,1.0286,5.4875,4.2408A53.1063,53.1063,0,0,1,4.835,23.2075Zm3.3474.0592c1.7321.1671,3.4655.2757,5.2.2757a54.1694,54.1694,0,0,0,5.5482-.3079L16.0156,24.19Zm14.0179.0472,2.3921,2.9906a53.1338,53.1338,0,0,1-8.0167,1.14ZM28,17.0267a52.4587,52.4587,0,0,1-24,0V15.6116c2.8965,1.0246,8.32,1.2214,12,1.2214s9.1035-.1968,12-1.2214Zm-1.9167-3.4338a42.1459,42.1459,0,0,1-20.1668,0A54.8558,54.8558,0,0,1,16,12.833,54.8472,54.8472,0,0,1,26.0833,13.5929ZM4,26.1V25.072a54.8063,54.8063,0,0,0,11.9484,1.362c.0174.0009.0341.0084.0516.0084s.0357-.0075.0539-.0085A54.7971,54.7971,0,0,0,28,25.072V26.1C22.8389,27.5215,9.1592,27.5215,4,26.1Z"/><path d="M2.7251,4.7949l6.2994,1.8C9.0182,6.6746,9,6.7523,9,6.833A3.0182,3.0182,0,1,0,9.8513,4.75L3.2749,2.8711a1,1,0,0,0-.55,1.9238Zm8.3594,1.6338A1.0144,1.0144,0,0,1,12,5.833a1,1,0,1,1-1,1A.98.98,0,0,1,11.0845,6.4287Z"/><path d="M20,9.833a3.0033,3.0033,0,0,0,3-3c0-.0809-.0184-.1585-.0247-.2383l6.2991-1.8a1,1,0,0,0-.5488-1.9238L22.1494,4.75A2.9972,2.9972,0,1,0,20,9.833Zm0-4a1.0144,1.0144,0,0,1,.915.5947A.9724.9724,0,0,1,21,6.833a1,1,0,1,1-1-1Z"/></g></svg>